<svg id="Group_249" data-name="Group 249" xmlns="http://www.w3.org/2000/svg" width="185.697"
    height="214.172" viewBox="0 0 185.697 214.172">
    <g id="Group_243" data-name="Group 243" transform="translate(125.121 86.299)">
        <path id="Path_3648" data-name="Path 3648"
            d="M157.919,96.736l-3.789-1.624-1.624,1.624-2.03-2.3-1.894-.135-1.082,5.954,1.488,1.488,2.165.135,2.165-2.165,3.248.541,3.383-.271-.271-1.894Z"
            transform="translate(-147.5 -92.406)" fill="#5fb889" />
        <path id="Path_3649" data-name="Path 3649"
            d="M161.924,95.471l-2.571-2.3L158,92.9l1.759,3.654,3.518,2.842.677,3.654,2.03.541,1.083-.812-2.977-4.33Z"
            transform="translate(-143.792 -92.9)" fill="#5fb889" />
    </g>
    <g id="Group_244" data-name="Group 244" transform="translate(0 100.913)">
        <path id="Path_3650" data-name="Path 3650"
            d="M92.47,158.367c-3.518-5.142-7.172-10.149-10.555-15.426a58.711,58.711,0,0,1-5.142-8.931,6.423,6.423,0,0,1,.947-5.413c.812-.947,3.789-1.218,5.007-.406,3.518,2.165,7.578,4.465,9.743,7.848,5.007,7.713,11.637,12.855,19.891,16.508a121.633,121.633,0,0,1,15.291,8.525c7.172,4.33,11.231,10.96,12.449,19.079,1.624,10.555,2.706,21.109,3.789,31.664.541,4.33-.271,5.142-4.736,5.142H121.563c-2.842,0-4.6-.947-4.6-4.059-.135-8.66-4.33-14.479-11.637-18.944-9.337-5.819-18.268-12.314-27.469-18.538a31.227,31.227,0,0,1-10.284-11.908c-5.819-11.772-11.5-23.545-12.449-36.67-.541-6.766,1.488-13.8,2.571-20.7A3.777,3.777,0,0,1,60.4,103.7a4.3,4.3,0,0,1,3.383,2.03,8.965,8.965,0,0,1,1.488,4.871c-.541,14.073,3.654,26.657,11.366,38.294a18.578,18.578,0,0,0,4.6,4.6c3.383,2.165,6.9,3.789,10.419,5.683A2.3,2.3,0,0,1,92.47,158.367Z"
            transform="translate(-55.033 -103.7)" fill="#226c5f" />
    </g>
    <g id="Group_245" data-name="Group 245" transform="translate(96.693 100.913)">
        <path id="Path_3651" data-name="Path 3651"
            d="M178.058,158.367c3.518-5.142,7.172-10.149,10.555-15.426a58.7,58.7,0,0,0,5.142-8.931,6.422,6.422,0,0,0-.947-5.413c-.812-.947-3.789-1.218-5.007-.406-3.518,2.165-7.578,4.465-9.743,7.848-5.007,7.713-11.637,12.855-19.891,16.508a121.638,121.638,0,0,0-15.291,8.525c-7.172,4.33-11.231,10.96-12.449,19.079-1.624,10.555-2.706,21.109-3.789,31.664-.541,4.33.271,5.142,4.736,5.142h17.591c2.842,0,4.6-.947,4.6-4.059.135-8.66,4.33-14.479,11.637-18.944,9.337-5.819,18.268-12.314,27.469-18.538a31.227,31.227,0,0,0,10.284-11.908c5.819-11.772,11.5-23.545,12.449-36.67.541-6.766-1.488-13.8-2.571-20.7a3.777,3.777,0,0,0-2.706-2.436,4.3,4.3,0,0,0-3.383,2.03,8.965,8.965,0,0,0-1.489,4.871c.541,14.073-3.653,26.657-11.366,38.294a18.577,18.577,0,0,1-4.6,4.6c-3.383,2.165-6.9,3.789-10.419,5.683A2.3,2.3,0,0,0,178.058,158.367Z"
            transform="translate(-126.491 -103.7)" fill="#226c5f" />
    </g>
    <g id="Group_246" data-name="Group 246" transform="translate(90.717)">
        <path id="Path_3652" data-name="Path 3652"
            d="M128.739,35.181c-7.984,6.224-6.36,14.343-5.548,17.32,9.337-14.749,26.116-16.373,26.116-16.373s-22.462,11.366-27.2,28.551c-.406,1.353,2.977,2.571,3.518.947a35.923,35.923,0,0,1,4.059-8.66c4.6,1.083,12.449,1.894,17.32-2.571,6.36-5.954,4.195-17.05,13.531-23.815C162.568,29.092,139.429,26.791,128.739,35.181Z"
            transform="translate(-122.075 -29.124)" fill="#5fb889" />
    </g>
    <g id="Group_247" data-name="Group 247" transform="translate(62.057 12.498)">
        <path id="Path_3653" data-name="Path 3653"
            d="M122.011,40.579c5.819,3.383,5.413,8.8,5.277,10.825-7.442-8.8-18.538-8.39-18.538-8.39s15.832,5.413,20.433,16.238c.406.812-1.759,2.03-2.165.947a31.34,31.34,0,0,0-3.383-5.277c-2.977,1.083-7.984,2.3-11.5-.135-4.736-3.383-4.33-10.825-11.1-14.343C99.278,39.632,114.163,36.114,122.011,40.579Z"
            transform="translate(-100.894 -38.36)" fill="#5fb889" />
    </g>
    <path id="Path_3654" data-name="Path 3654"
        d="M66.5,119.828a11.186,11.186,0,0,1,.947,1.759,80.157,80.157,0,0,1,155.612.812,15.429,15.429,0,0,1,1.353-2.571,10.077,10.077,0,0,1,4.195-3.653A87.1,87.1,0,0,0,61.9,115.9,10,10,0,0,1,66.5,119.828Z"
        transform="translate(-52.608 -20.268)" fill="#5fb889" />
    <g id="Group_248" data-name="Group 248" transform="translate(22.146 49.358)">
        <path id="Path_3655" data-name="Path 3655"
            d="M163.53,120.824l-1.624-1.488-3.653-4.736-1.353.677,3.518,6.5,1.894,2.3.406,3.248.271.271a13.208,13.208,0,0,1,2.3-2.436l-.947-1.218Z"
            transform="translate(-41.206 -48.296)" fill="#5fb889" />
        <path id="Path_3656" data-name="Path 3656"
            d="M128.5,164.662a33.264,33.264,0,0,1,8.254-17.726l-3.924.406L131.2,144.5l-5.277.135-5.954,1.894-4.871-.812a32.707,32.707,0,0,1,9.607,18.944c.677,4.465,1.218,8.931,1.759,13.4C127.278,173.593,127.82,169.127,128.5,164.662Z"
            transform="translate(-55.967 -37.736)" fill="#5fb889" />
        <path id="Path_3657" data-name="Path 3657"
            d="M75.053,135.152a10.869,10.869,0,0,1,5.277,1.353,5.486,5.486,0,0,0,1.218.677c3.654,2.3,7.713,4.871,10.419,8.931,3.924,6.224,9.472,10.69,17.185,14.208,2.706,1.218,5.277,2.571,7.713,3.924l-4.33-4.871.271-1.894-.947-2.165,1.624-1.894.812-6.766-.812-1.353,1.894-3.518,5.413-7.172,2.436-.541,2.977-2.842.135-2.03,6.224-6.089.271-1.083h1.083l.271.812,2.842.271,1.083.541,8.525-2.977,2.165.541,1.218-.541h3.518l.541-.541,1.218.135,1.353.677-.677,1.218.947,1.488-1.218,1.759.271.812,2.436,1.083,4.059.541,2.436,2.165,1.759.135,1.759.406,1.353-.541-.135-2.436,2.03-1.353,1.624.271,1.218.812,6.766.812,1.894-1.488,3.112-.271.406-.947-.271-5.819-.677-2.03-3.924.947-1.353-.135-.135,1.218-1.353-.271-2.706-1.624-1.894-4.195-2.571-.271.135,1.488H171.4l-.677-.406,1.082,2.03,1.353.812-.947,1.218v1.759l-2.165-.271-1.488-2.977-1.624-1.083-.947-1.759v-1.894l-5.683-3.383-1.083-1.218H158l-.271-.677-.947.406.812,1.894,1.353,1.082,1.488,1.759,1.894.271.271.677,2.706,1.488.271.947h-.812l-.947-.677-.406.947.947,1.083-1.218,2.3H162.2l.135,2.03-4.059-1.488.271-.812,3.112-.135,1.624-1.083-1.083-1.894-2.842-1.894L158,113.231l-3.383-3.653-1.624-.541-3.112,1.894-2.571-.812-1.353.812.135,2.3-3.112,1.218-.812,1.218-.271,2.706L139.734,120l-5.413,1.488-.406.406-.541-.135-1.894-2.03-1.488.135-.406-3.518,1.353-3.248-.135-3.518,2.03-.541,7.442,1.083.677-4.195-1.083-1.218v-.677l-2.3-.947v-1.353l2.977.135.947-.812h1.488L144.2,99.7l-1.083.947-5.819.947h0l-.271-.406,1.894-1.218-.947-.406-.135-.677,2.3-1.624.406-2.03-1.894-.135V93.34l-.677-1.353,1.624-1.353,1.759.812v2.3l1.759,2.571.271,1.218,1.353,1.894.406-.406,2.842-1.759.271-1.488,3.789-.677-1.218-2.842,2.165-1.894.677,3.789,1.218.812,1.353-.271,1.218.406,4.871-1.488-.135-3.654,1.759.135-.947-1.624.541-.812h2.3l.406-.406-1.353-.677-2.571,1.083h-.947V87.25L160.3,86.98l-.947-1.759V84.138l.947-1.624-.135-.541-1.894-.135.135,1.759-1.624,1.083.541,2.03,1.894,1.353L158,89.821l.406,1.894-2.03,1.759-.947-.541-.812-1.759-1.083-1.894-1.488-.135-1.488,1.083-1.353-.135-1.082-2.571-.135-1.894h1.488l2.571-2.842,1.353-2.3V79.131l.947-.271,2.842-1.353,2.706.406,1.218.677,2.977.406,2.706,1.082.271,1.083h-2.3l1.894,1.488,1.218-.947-.135-1.353-1.083-1.759,2.165.947.135-.947,1.488-.947-.135-1.624L169.1,74.531h0c27.063,13.261,37.618,32.2,40.865,52.1l-1.218-2.842-1.894,2.706-1.624-1.218-.541,1.083h-1.624l-2.165-2.571-1.083.677,1.353,2.706,2.165,1.624.541,2.3,1.218-1.218v-3.112l.541-.135.812,2.03,1.624,1.082-.135,5.819a9.228,9.228,0,0,1,2.571-.271,12.345,12.345,0,0,1,4.33.812A71.725,71.725,0,0,0,71.4,136.37C72.077,135.287,73.971,135.152,75.053,135.152ZM153.13,115.4l-.406-.677-.135-1.353,1.218-.406.135,1.894-.406.406.812.947v2.436l-1.624.541-.271-3.112Zm-23.41-30.852L128.5,82.92l1.488-1.218.541.271h3.383l.812.677-.271,1.218-3.383.677Zm7.036,10.69-.947,3.383-3.924.541.271-1.083,1.353-.406v-.406l-1.083-.406.812-1.488h1.083l.677-.812,1.894.135-.135.541Zm-5.548-23.41h4.465l4.6.271,1.894,1.083-2.706.677L135,76.966,132.427,79l-5.683,1.082-2.3,1.083-3.924.271-6.766,4.195h0l-.406-2.3L117,79.673l10.149-5.954ZM123.9,73.448l-10.284,6.089-5.413,2.977-4.33,3.653-1.353,3.383-3.654,3.924v1.083l-2.3,3.518-1.353-2.706L98.6,92.663l-2.165-.135-2.706,2.706.812.677-3.653,2.436-.406-1.353L87.1,100.105h0C103.064,77.372,123.9,73.448,123.9,73.448Z"
            transform="translate(-71.4 -65.6)" fill="#5fb889" />
    </g>
</svg>
  